PathFileType	4	(X/Y/Z)	C:\Users\WrightLab\Desktop\Jo\P1.2Trial19.trc
DataRate	CameraRate	NumFrames	NumMarkers	Units	OrigDataRate	OrigDataStartFrame	OrigNumFrames
100.00	100.00	       27	19	mm	100.00	472	       629
Frame#	Time	Headset_Front			Headset_Back			Headset_Left			Headset_Right			Left_Shoulder			Right_Shoulder			Sternum			C7			Left Elbow			Right Elbow			Left Wrist			Right Wrist			Left ASIS			Right ASIS			S2			Left Knee			Right Knee			Left Ankle			Right Ankle			
		X1	Y1	Z1	X2	Y2	Z2	X3	Y3	Z3	X4	Y4	Z4	X5	Y5	Z5	X6	Y6	Z6	X7	Y7	Z7	X8	Y8	Z8	X9	Y9	Z9	X10	Y10	Z10	X11	Y11	Z11	X12	Y12	Z12	X13	Y13	Z13	X14	Y14	Z14	X15	Y15	Z15	X16	Y16	Z16	X17	Y17	Z17	X18	Y18	Z18	X19	Y19	Z19	

472	4.710	-89.49866	1550.69702	2139.94434				-171.31146	1488.91528	2275.52344				-41.44993	1287.50110	2350.41309	27.38964	929.92108	2098.45313	-245.95055	1214.67810	2217.32422	4.78767	1030.38354	2487.46094				-136.73491	1191.66797	1790.44666	-110.82932	886.93671	2641.87549	-244.34055	758.20905	1862.06165				-293.00931	881.16260	2109.69189				-45.83817	469.36325	2344.19702	-313.71924	482.16440	2170.79468	170.09869	169.37143	2244.50244				
473	4.720	-95.12946	1551.04163	2141.51587				-177.89235	1489.72351	2276.10059				-47.63416	1287.89575	2351.36328	19.64406	930.05688	2100.84229	-253.23969	1216.05188	2218.89844	-2.99573	1029.70459	2487.27368				-144.31906	1193.15161	1793.10022	-121.24583	886.48328	2640.45142	-250.08833	758.63885	1861.98767				-300.38998	882.23962	2112.02246				-53.17203	470.61606	2350.38916	-322.55734	481.54391	2173.39746	165.65575	171.50519	2246.42554				
474	4.730	-100.80238	1551.70435	2142.81250				-184.80365	1490.81677	2277.32495				-54.25206	1288.78235	2352.50781	11.45255	930.89026	2102.61182	-260.21036	1217.59473	2220.23145	-10.80097	1028.47815	2484.84546				-151.45822	1194.28577	1794.97974	-131.34035	885.74475	2638.64795	-256.16388	758.72858	1864.33142				-307.46552	883.64996	2114.09204				-61.22484	472.64767	2357.00439	-330.57532	482.43982	2174.64355	161.33739	175.84795	2251.17065				
475	4.740	-106.79222	1552.25098	2145.15576				-191.89571	1491.97107	2278.47559				-61.33444	1289.91504	2354.12183	3.59511	933.01447	2105.19092	-266.78354	1218.74316	2221.20215	-18.46828	1028.09729	2483.52588				-158.35381	1195.78894	1797.00903	-140.75854	885.31244	2635.93506	-263.00031	759.63922	1866.29822				-314.49374	885.26288	2116.09082				-70.29126	474.59644	2363.22314	-338.74783	484.61465	2176.96606	155.81882	181.36348	2257.24683				
476	4.750	-112.01937	1552.30151	2145.67847				-198.33691	1492.89514	2278.64795				-68.61439	1291.94482	2355.91089	-4.00899	934.89508	2107.29980	-273.61990	1220.47388	2222.46460	-26.06251	1027.51599	2481.05518				-165.01213	1197.40454	1798.73621	-150.05080	884.40466	2633.69702	-269.79800	760.47247	1870.23486				-321.17749	887.06592	2117.34741				-80.48492	477.16907	2370.02295	-345.99509	486.64951	2178.10693	149.43915	186.26701	2262.16895				
477	4.760	-117.54203	1552.56982	2146.79761										-76.43250	1294.03467	2357.97241	-11.14116	936.43842	2111.61719	-279.90378	1221.77747	2222.87988	-33.63171	1027.08667	2477.98022				-171.65199	1199.12402	1800.48962	-158.29883	882.66718	2629.86353	-276.97839	762.17175	1872.24463				-327.54535	889.00220	2118.16553				-92.13503	479.81894	2377.39429	-352.36066	489.45462	2179.33643	141.06451	191.73439	2268.89575				
478	4.770	-122.70287	1552.94946	2147.16968	-210.90402	1494.73889	2279.41919							-83.62043	1294.98132	2358.65845	-17.79829	938.20734	2113.33936	-285.86761	1223.00598	2223.24243	-41.02843	1027.08679	2475.06763	-204.53822	917.24261	2353.74048	-177.67116	1200.41821	1801.33093	-167.28725	881.85077	2626.78906	-284.57150	763.91370	1873.73621				-333.10416	890.93353	2118.52979				-104.94279	482.67023	2386.33228	-358.18457	490.77805	2179.00659	131.84711	197.14246	2276.55029				
479	4.780	-128.38657	1553.68457	2148.43823	-217.04271	1495.70374	2279.95605							-90.86673	1296.26025	2360.26587	-23.85652	939.34735	2117.29224	-291.81351	1224.43958	2223.87769	-48.52454	1026.84534	2473.01855	-211.09848	919.12006	2354.40283	-183.51633	1200.91016	1802.50146	-175.61986	880.29028	2623.57446	-291.91452	765.48822	1874.90479				-339.17657	892.73779	2119.33350				-120.12322	485.71600	2398.19189	-363.47195	491.44302	2178.53979	119.15024	204.20827	2282.97632	-357.37531	153.71364	2226.95288	
480	4.790	-133.31905	1554.13013	2148.50806	-223.09492	1496.40137	2280.28687							-97.61279	1297.37292	2361.45581	-29.70964	940.63049	2119.40771	-297.82205	1226.03870	2224.97461	-55.68742	1025.71643	2469.39575	-217.92761	920.63031	2355.01660	-189.99031	1202.24707	1805.04480	-183.55011	878.19135	2619.64600	-300.05569	766.86359	1878.08984				-345.13672	893.92780	2119.65479				-135.79214	489.02509	2410.41504	-368.12320	491.43460	2177.29663	107.80556	210.22028	2290.45044				
481	4.800	-138.25121	1554.55017	2149.53198	-229.23549	1497.36194	2280.85254							-103.83897	1298.16772	2362.72461	-35.40110	940.73248	2122.49341	-303.72079	1227.47546	2226.37646	-62.63209	1024.99402	2467.40405	-224.64674	921.74512	2356.31885	-195.21535	1202.17676	1805.81482	-191.70065	876.07843	2616.64258	-307.62317	768.08197	1878.49683				-351.68631	895.39532	2121.12549				-152.26917	490.39185	2419.94629	-371.51563	491.33151	2175.69556	95.91977	216.52440	2297.00659				
482	4.810	-142.91180	1555.56885	2151.16943	-235.35112	1498.39233	2281.47949							-109.84943	1298.60510	2364.37305	-40.85077	940.54620	2124.20337	-308.74756	1227.85986	2226.75317	-69.70489	1023.98425	2465.32788	-231.76926	922.46564	2357.76636	-200.46727	1203.24329	1807.34448	-199.46892	873.27795	2613.07251	-316.35587	769.73553	1881.80408				-358.32031	896.20703	2122.54346				-169.55399	491.38364	2430.07959	-373.75369	490.24521	2173.85107	83.59749	223.33234	2304.02612				
483	4.820	-147.38187	1555.95471	2151.82031	-241.25879	1499.71985	2281.72925							-115.53187	1298.93372	2365.95020	-46.24879	939.93329	2127.08789	-313.89240	1228.49646	2227.26050	-76.30053	1023.07141	2463.46436	-239.29732	923.00177	2358.80127	-205.57559	1203.91321	1809.36731	-206.68610	869.71631	2609.06934	-324.78415	769.81903	1884.97412				-364.47037	897.09509	2123.78101				-186.95784	493.22903	2438.30420	-374.91620	488.21286	2170.41626	71.58063	230.13020	2311.16040				
484	4.830	-152.26891	1556.93323	2152.81982	-247.08127	1500.83948	2281.98999							-121.19868	1299.01929	2367.72437	-51.22167	939.39862	2127.71655	-319.81961	1229.79614	2229.24268	-83.28286	1021.29254	2461.47314	-248.80328	923.86212	2362.39233	-210.66873	1203.62366	1811.04016	-213.72514	866.33759	2604.56787	-333.22208	769.60663	1888.17517				-370.54404	897.80139	2124.42651				-204.99814	495.38712	2446.47119	-376.11771	486.65726	2168.92554	60.02574	236.99583	2318.94482				
485	4.840	-156.26549	1557.63049	2154.22339	-252.45000	1501.68823	2281.82959							-126.68356	1298.62964	2369.44189	-56.27932	938.56512	2130.41992	-324.70584	1230.10266	2229.91602	-89.91643	1020.32404	2460.53833	-253.92607	922.97894	2361.35938	-215.34250	1203.67444	1812.10571	-221.18761	863.14795	2600.94678	-342.80954	770.11584	1890.25635				-376.28461	898.32098	2124.95337				-222.20647	495.98645	2450.82007	-377.21506	484.18201	2166.06763	48.34671	242.71075	2325.82520				
486	4.850	-159.94945	1557.53076	2155.18311	-257.91260	1502.54932	2282.02002							-132.30969	1298.31885	2371.31812	-61.24882	938.29596	2130.96680	-329.61560	1230.78442	2230.66187	-97.01114	1017.83783	2459.22339	-261.45288	922.83307	2363.40186	-220.21536	1204.83496	1816.27502	-227.95909	859.65198	2596.35986	-352.79501	769.89972	1894.63708				-382.59592	898.68164	2126.25610				-239.97034	498.96051	2458.06348	-377.91483	482.36536	2164.70630	35.93233	248.11182	2335.38672				
487	4.860	-164.41489	1558.02222	2156.72778										-137.93182	1297.47632	2373.18188	-65.80424	937.72815	2132.59009	-334.83862	1232.92517	2234.37427	-103.87862	1017.21027	2458.62646	-268.37964	922.37494	2364.84253	-224.28912	1204.60950	1817.50708	-234.97226	856.75061	2592.70264	-362.99994	769.80353	1899.26050				-388.63724	898.81866	2127.28833				-257.16965	499.71729	2461.60034	-377.79257	480.11618	2162.00757	22.75092	252.47191	2344.12158				
488	4.870	-167.51781	1558.45959	2157.98535										-143.57199	1297.26953	2374.87012	-70.94744	937.60223	2134.28809	-339.66385	1233.24658	2234.52783	-111.24820	1015.69171	2459.03882	-275.54260	922.24005	2366.12524	-228.27026	1205.93848	1820.87720	-241.89465	854.11298	2588.19678	-373.94876	773.29071	1896.67712				-394.33096	899.18524	2127.46240				-274.03177	502.15329	2464.68994	-378.43088	479.29199	2158.78394	8.91589	255.35587	2353.92407				
489	4.880	-171.29912	1558.27551	2158.94434										-149.49339	1296.63416	2377.15015	-76.11535	937.73706	2134.79370	-343.98892	1233.64575	2235.08960	-118.08927	1014.47656	2458.21948				-232.95621	1206.47485	1824.34290	-249.18652	851.82861	2584.65991	-384.50916	771.96490	1901.25781				-399.68408	899.61383	2127.13843				-289.46344	505.42941	2468.14404	-378.52457	478.73425	2155.51465	-5.51878	257.62323	2364.45508				
490	4.890	-174.54221	1557.99475	2160.63892										-155.55077	1296.74829	2379.49976	-80.67407	937.72931	2138.35498	-348.30954	1234.45313	2233.78931	-125.26066	1013.25824	2459.04907				-236.42630	1207.48535	1828.16138	-256.91052	849.97638	2581.28491	-395.39545	773.42676	1904.41943				-404.57986	900.17725	2127.01611				-303.21826	509.07507	2471.69360	-378.81732	477.65894	2152.18750	-19.73791	259.34766	2375.03198				
491	4.900	-178.21938	1558.19116	2162.39331	-294.99640	921.77197	2369.23193							-161.52713	1296.51294	2381.37695	-85.42653	938.53802	2142.10693	-353.40448	1235.01306	2234.10132	-132.40654	1013.03625	2459.80493				-239.97791	1208.70959	1831.10242	-265.18466	848.22961	2578.53516	-406.24933	774.53723	1908.09570				-409.05356	900.91376	2126.69067				-317.23779	512.44623	2475.54443	-379.30515	476.84149	2148.48682	-35.19783	258.51218	2384.34229				
492	4.910	-181.95634	1558.35925	2164.05688	-300.95001	922.02057	2369.32031							-168.32599	1296.60034	2383.81934	-89.94469	938.50122	2146.40161	-358.37292	1235.61340	2234.25122	-139.85933	1012.10120	2460.91724							-274.05707	847.10071	2576.69995	-416.90820	775.86719	1908.87000				-413.06088	901.38525	2125.61865				-330.52707	515.35181	2478.02051	-379.91986	476.22833	2147.13916	-50.89693	257.98715	2395.23706				
493	4.920	-185.24419	1558.46265	2166.02490	-306.49774	922.28564	2368.58350							-175.12567	1297.04016	2385.88452	-94.06991	938.95160	2150.93848	-363.42133	1236.07849	2234.08350	-147.14635	1012.03601	2462.22217							-282.56586	845.19470	2575.17188	-427.45691	777.72461	1914.15503				-417.72757	902.28558	2125.04736				-344.23856	517.75909	2479.37891	-380.68250	474.42261	2143.63354	-67.61733	256.22324	2405.85938				
494	4.930	-188.61469	1558.58813	2167.36426	-311.93756	922.65271	2368.14478							-182.26120	1297.56982	2388.26782	-98.06768	939.19330	2157.50903	-368.65280	1236.56689	2233.87915	-154.92516	1012.40326	2463.91211							-290.87369	843.63513	2573.86011	-437.37341	779.05804	1916.08594				-421.71921	903.07568	2123.98242				-357.07422	520.81177	2479.96118	-381.53226	472.68491	2141.29785	-83.86134	253.10599	2415.53589				
495	4.940	-191.64594	1559.15320	2169.26294	-317.17944	923.24780	2366.61841							-189.81863	1298.23389	2391.03052	-101.45046	939.54950	2163.70728	-373.40012	1237.30164	2233.42432	-162.54298	1012.99255	2466.38965							-299.58350	842.95685	2573.59644	-447.05179	782.28894	1918.12158										-370.61517	524.39166	2481.63574	-382.64697	470.94852	2140.14795	-100.49480	249.87196	2426.45068				
496	4.950	-195.53714	1559.22021	2171.73340	-321.67789	924.07690	2365.42139							-197.08331	1299.13306	2392.89478	-104.48690	939.96936	2169.33594	-378.19550	1237.91284	2232.66235	-170.16174	1014.05298	2468.59302							-307.47864	842.04108	2571.92700	-456.35776	784.81067	1917.13062										-383.52661	527.02521	2480.25879	-383.47775	468.94385	2138.36719	-117.84238	245.01497	2436.70239				
497	4.960	-199.22707	1559.75500	2174.02905	-325.95343	924.99158	2362.09521							-205.04178	1300.56519	2395.61084	-107.83421	940.88422	2175.75000	-382.88196	1238.53308	2231.71289	-177.68900	1014.27057	2469.76294							-315.33212	840.98108	2570.43115	-465.06845	787.86316	1920.07410										-395.62418	529.74329	2479.01831	-383.84329	467.93689	2137.22192	-136.07996	240.16086	2447.26025				
498	4.970	-202.41830	1560.35718	2176.06250	-351.27002	936.15668	2384.17407							-212.62051	1301.58252	2397.84229	-110.95767	942.03833	2180.67993	-387.76416	1239.11121	2230.80811	-184.96655	1015.53522	2470.83813							-322.81140	840.52850	2569.08813	-472.61465	789.00531	1925.40308										-408.26056	532.05072	2475.82593	-384.04913	467.09988	2134.48120	-156.15215	236.11777	2458.69482				
